<svg width="50" height="42" viewBox="0 0 50 42" fill="none" xmlns="http://www.w3.org/2000/svg">
<path d="M34.3272 23.2182L28.2934 23.1823L28.3584 15.4151L34.3922 15.4509C34.6684 15.4526 34.8941 15.2301 34.8964 14.9539L34.9744 5.63382C34.9767 5.35769 34.7547 5.13251 34.4786 5.13086L17.1942 5.02808C13.8327 5.00809 10.9081 5.57948 8.43702 6.76272C5.94086 7.91678 4.02597 9.5604 2.71628 11.6984C1.37874 13.8312 0.704878 16.289 0.681724 19.0553C0.658569 21.8217 1.29122 24.2873 2.59295 26.4358C3.86661 28.5889 5.75335 30.2681 8.22936 31.4781L8.23112 31.4789C8.59666 31.6558 9.17211 31.794 9.85048 31.9108C10.545 32.0304 11.4006 32.1358 12.3607 32.229C14.2819 32.4156 16.6487 32.5559 19.0381 32.6607C23.6572 32.8632 28.3843 32.934 30.1924 32.9474L40.4041 41.3904C40.5782 41.5344 40.8277 41.5433 41.0123 41.412C41.1969 41.2808 41.2707 41.0422 41.1922 40.8302L34.792 23.5436C34.7199 23.349 34.5349 23.2195 34.3272 23.2182Z" fill="#054752" stroke="#054752" stroke-linecap="round" stroke-linejoin="round"/>
<path d="M10.164 13.6247C10.1863 10.9393 10.8392 8.57353 12.1228 6.52756C13.3754 4.48141 15.2114 2.89952 17.6303 1.78191C20.0186 0.637781 22.8656 0.0756549 26.171 0.0955293L43.4554 0.199453L43.3783 9.51957L36.8445 9.48028L36.7719 18.2475L43.3057 18.2868L49.7075 35.5738L39.3582 27.017C36.0528 26.9971 19.8025 26.742 17.4332 25.5956C15.0332 24.4227 13.2238 22.8057 12.0051 20.7447C10.7555 18.6835 10.1418 16.3102 10.164 13.6247Z" fill="#E76F51"/>
</svg>
