<svg width="23" height="23" viewBox="0 0 23 23" fill="none" xmlns="http://www.w3.org/2000/svg">
<path fill-rule="evenodd" clip-rule="evenodd" d="M1.14 11.5C1.14 8.75236 2.2315 6.11725 4.17437 4.17437C6.11725 2.2315 8.75236 1.14 11.5 1.14C14.2476 1.14 16.8827 2.2315 18.8256 4.17437C20.7685 6.11725 21.86 8.75236 21.86 11.5C21.86 14.2476 20.7685 16.8827 18.8256 18.8256C16.8827 20.7685 14.2476 21.86 11.5 21.86C8.75236 21.86 6.11725 20.7685 4.17437 18.8256C2.2315 16.8827 1.14 14.2476 1.14 11.5ZM11.5 0C8.45001 0 5.52494 1.2116 3.36827 3.36827C1.2116 5.52494 0 8.45001 0 11.5C0 14.55 1.2116 17.4751 3.36827 19.6317C5.52494 21.7884 8.45001 23 11.5 23C14.55 23 17.4751 21.7884 19.6317 19.6317C21.7884 17.4751 23 14.55 23 11.5C23 8.45001 21.7884 5.52494 19.6317 3.36827C17.4751 1.2116 14.55 0 11.5 0ZM12.07 6.53C12.07 6.37883 12.0099 6.23385 11.9031 6.12695C11.7962 6.02005 11.6512 5.96 11.5 5.96C11.3488 5.96 11.2038 6.02005 11.0969 6.12695C10.9901 6.23385 10.93 6.37883 10.93 6.53V10.93H6.53C6.37883 10.93 6.23385 10.9901 6.12695 11.0969C6.02005 11.2038 5.96 11.3488 5.96 11.5C5.96 11.6512 6.02005 11.7962 6.12695 11.9031C6.23385 12.0099 6.37883 12.07 6.53 12.07H10.93V16.47C10.93 16.6212 10.9901 16.7662 11.0969 16.8731C11.2038 16.9799 11.3488 17.04 11.5 17.04C11.6512 17.04 11.7962 16.9799 11.9031 16.8731C12.0099 16.7662 12.07 16.6212 12.07 16.47V12.07H16.47C16.6212 12.07 16.7662 12.0099 16.8731 11.9031C16.9799 11.7962 17.04 11.6512 17.04 11.5C17.04 11.3488 16.9799 11.2038 16.8731 11.0969C16.7662 10.9901 16.6212 10.93 16.47 10.93H12.07V6.53Z" fill="#054652"/>
</svg>
