<svg width="24" height="24" viewBox="0 0 24 24" fill="none" xmlns="http://www.w3.org/2000/svg">
<path fill-rule="evenodd" clip-rule="evenodd" d="M2.95453 10.6364C2.95453 6.39386 6.3938 2.95459 10.6364 2.95459C14.8789 2.95459 18.3182 6.39386 18.3182 10.6364C18.3182 14.879 14.8789 18.3183 10.6364 18.3183C6.3938 18.3183 2.95453 14.879 2.95453 10.6364ZM10.6364 1.95459C5.84152 1.95459 1.95453 5.84157 1.95453 10.6364C1.95453 15.4313 5.84152 19.3183 10.6364 19.3183C12.8539 19.3183 14.8772 18.4869 16.4117 17.1188L21.1919 21.8991C21.3872 22.0944 21.7037 22.0944 21.899 21.8991C22.0943 21.7038 22.0943 21.3872 21.899 21.192L17.1188 16.4117C18.4868 14.8773 19.3182 12.8539 19.3182 10.6364C19.3182 5.84157 15.4312 1.95459 10.6364 1.95459Z" fill="#054652"/>
</svg>
